<svg width="312" height="54" viewBox="0 0 312 54" fill="none" xmlns="http://www.w3.org/2000/svg">
<g filter="url(#filter0_i_407_6)">
<mask id="path-1-outside-1_407_6" maskUnits="userSpaceOnUse" x="1" y="10" width="278" height="41" fill="black">
<rect fill="white" x="1" y="10" width="278" height="41"/>
<path d="M2.75213 12.6364H13.6364L22.8693 35.1506H23.2955L32.5284 12.6364H43.4126V49H34.8544V26.6634H34.5526L25.8168 48.7692H20.348L11.6122 26.5391H11.3104V49H2.75213V12.6364ZM61.6255 49.5149C58.7609 49.5149 56.2988 48.929 54.2392 47.7571C52.1913 46.5734 50.6111 44.928 49.4984 42.821C48.3975 40.7022 47.8471 38.246 47.8471 35.4524C47.8471 32.647 48.3975 30.1908 49.4984 28.0838C50.6111 25.965 52.1913 24.3196 54.2392 23.1477C56.2988 21.964 58.7609 21.3722 61.6255 21.3722C64.4901 21.3722 66.9463 21.964 68.9941 23.1477C71.0538 24.3196 72.6341 25.965 73.7349 28.0838C74.8476 30.1908 75.4039 32.647 75.4039 35.4524C75.4039 38.246 74.8476 40.7022 73.7349 42.821C72.6341 44.928 71.0538 46.5734 68.9941 47.7571C66.9463 48.929 64.4901 49.5149 61.6255 49.5149ZM61.6788 42.9631C62.7205 42.9631 63.6023 42.6435 64.3244 42.0043C65.0465 41.3651 65.5969 40.4773 65.9757 39.3409C66.3663 38.2045 66.5616 36.8906 66.5616 35.3991C66.5616 33.884 66.3663 32.5582 65.9757 31.4219C65.5969 30.2855 65.0465 29.3977 64.3244 28.7585C63.6023 28.1193 62.7205 27.7997 61.6788 27.7997C60.6016 27.7997 59.6902 28.1193 58.9444 28.7585C58.2105 29.3977 57.6483 30.2855 57.2576 31.4219C56.8788 32.5582 56.6895 33.884 56.6895 35.3991C56.6895 36.8906 56.8788 38.2045 57.2576 39.3409C57.6483 40.4773 58.2105 41.3651 58.9444 42.0043C59.6902 42.6435 60.6016 42.9631 61.6788 42.9631ZM92.5826 49.5149C89.718 49.5149 87.2559 48.929 85.1962 47.7571C83.1484 46.5734 81.5681 44.928 80.4554 42.821C79.3546 40.7022 78.8042 38.246 78.8042 35.4524C78.8042 32.647 79.3546 30.1908 80.4554 28.0838C81.5681 25.965 83.1484 24.3196 85.1962 23.1477C87.2559 21.964 89.718 21.3722 92.5826 21.3722C95.4471 21.3722 97.9033 21.964 99.9512 23.1477C102.011 24.3196 103.591 25.965 104.692 28.0838C105.805 30.1908 106.361 32.647 106.361 35.4524C106.361 38.246 105.805 40.7022 104.692 42.821C103.591 44.928 102.011 46.5734 99.9512 47.7571C97.9033 48.929 95.4471 49.5149 92.5826 49.5149ZM92.6358 42.9631C93.6775 42.9631 94.5594 42.6435 95.2814 42.0043C96.0035 41.3651 96.5539 40.4773 96.9327 39.3409C97.3233 38.2045 97.5186 36.8906 97.5186 35.3991C97.5186 33.884 97.3233 32.5582 96.9327 31.4219C96.5539 30.2855 96.0035 29.3977 95.2814 28.7585C94.5594 28.1193 93.6775 27.7997 92.6358 27.7997C91.5587 27.7997 90.6472 28.1193 89.9015 28.7585C89.1676 29.3977 88.6053 30.2855 88.2147 31.4219C87.8359 32.5582 87.6465 33.884 87.6465 35.3991C87.6465 36.8906 87.8359 38.2045 88.2147 39.3409C88.6053 40.4773 89.1676 41.3651 89.9015 42.0043C90.6472 42.6435 91.5587 42.9631 92.6358 42.9631ZM120.77 49.3906C118.757 49.3906 116.929 48.8698 115.283 47.8281C113.638 46.7865 112.324 45.224 111.341 43.1406C110.359 41.0573 109.868 38.4709 109.868 35.3814C109.868 32.1735 110.377 29.5339 111.395 27.4624C112.413 25.3909 113.744 23.858 115.39 22.8636C117.047 21.8693 118.828 21.3722 120.734 21.3722C122.166 21.3722 123.392 21.6207 124.41 22.1179C125.428 22.6032 126.268 23.2306 126.931 24C127.594 24.7694 128.097 25.5684 128.44 26.397H128.618V12.6364H137.3V49H128.706V44.5788H128.44C128.073 45.4193 127.552 46.2064 126.878 46.9403C126.203 47.6742 125.357 48.2661 124.339 48.7159C123.332 49.1657 122.143 49.3906 120.77 49.3906ZM123.788 42.6257C124.842 42.6257 125.741 42.3298 126.487 41.7379C127.233 41.1342 127.807 40.2879 128.209 39.1989C128.612 38.1098 128.813 36.8314 128.813 35.3636C128.813 33.8722 128.612 32.5878 128.209 31.5107C127.819 30.4335 127.245 29.6049 126.487 29.0249C125.741 28.4448 124.842 28.1548 123.788 28.1548C122.711 28.1548 121.8 28.4508 121.054 29.0426C120.308 29.6345 119.74 30.469 119.349 31.5462C118.97 32.6233 118.781 33.8958 118.781 35.3636C118.781 36.8314 118.976 38.1098 119.367 39.1989C119.758 40.2879 120.32 41.1342 121.054 41.7379C121.8 42.3298 122.711 42.6257 123.788 42.6257ZM144.442 12.6364H149.698L162.056 42.821H162.482L174.84 12.6364H180.096V49H175.977V21.3722H175.621L164.258 49H160.281L148.917 21.3722H148.562V49H144.442V12.6364ZM205.544 37.8494V21.7273H209.735V49H205.544V44.3835H205.26C204.621 45.7685 203.627 46.9463 202.277 47.9169C200.928 48.8757 199.223 49.3551 197.164 49.3551C195.459 49.3551 193.944 48.9822 192.618 48.2365C191.292 47.4789 190.251 46.3426 189.493 44.8274C188.735 43.3004 188.357 41.3769 188.357 39.0568V21.7273H192.547V38.7727C192.547 40.7614 193.103 42.3475 194.216 43.5312C195.341 44.715 196.773 45.3068 198.513 45.3068C199.555 45.3068 200.614 45.0405 201.691 44.5078C202.78 43.9751 203.692 43.1584 204.426 42.0575C205.171 40.9567 205.544 39.554 205.544 37.8494ZM236.728 27.8352L232.963 28.9006C232.727 28.2732 232.377 27.6636 231.916 27.0717C231.466 26.468 230.85 25.9709 230.069 25.5803C229.288 25.1896 228.288 24.9943 227.069 24.9943C225.4 24.9943 224.009 25.379 222.896 26.1484C221.795 26.906 221.245 27.8707 221.245 29.0426C221.245 30.0843 221.623 30.907 222.381 31.5107C223.139 32.1143 224.322 32.6174 225.932 33.0199L229.98 34.0142C232.419 34.6061 234.236 35.5116 235.431 36.7308C236.627 37.9382 237.225 39.4948 237.225 41.4006C237.225 42.9631 236.775 44.3598 235.875 45.5909C234.988 46.822 233.745 47.7926 232.147 48.5028C230.549 49.2131 228.69 49.5682 226.571 49.5682C223.79 49.5682 221.487 48.9645 219.664 47.7571C217.842 46.5497 216.687 44.786 216.202 42.4659L220.179 41.4716C220.558 42.9394 221.274 44.0402 222.328 44.7741C223.393 45.508 224.784 45.875 226.5 45.875C228.453 45.875 230.004 45.4607 231.152 44.6321C232.312 43.7917 232.892 42.7855 232.892 41.6136C232.892 40.6667 232.561 39.8736 231.898 39.2344C231.235 38.5833 230.217 38.098 228.844 37.7784L224.299 36.7131C221.801 36.1212 219.966 35.2038 218.794 33.9609C217.634 32.7062 217.054 31.1378 217.054 29.2557C217.054 27.7169 217.486 26.3556 218.35 25.1719C219.226 23.9882 220.416 23.0589 221.919 22.3842C223.435 21.7095 225.151 21.3722 227.069 21.3722C229.767 21.3722 231.886 21.964 233.425 23.1477C234.976 24.3314 236.077 25.8939 236.728 27.8352ZM243.532 49V21.7273H247.723V49H243.532ZM245.663 17.1818C244.846 17.1818 244.142 16.9036 243.55 16.3473C242.97 15.791 242.68 15.1222 242.68 14.3409C242.68 13.5597 242.97 12.8909 243.55 12.3345C244.142 11.7782 244.846 11.5 245.663 11.5C246.48 11.5 247.178 11.7782 247.758 12.3345C248.35 12.8909 248.646 13.5597 248.646 14.3409C248.646 15.1222 248.35 15.791 247.758 16.3473C247.178 16.9036 246.48 17.1818 245.663 17.1818ZM266.477 49.5682C263.92 49.5682 261.719 48.9645 259.872 47.7571C258.026 46.5497 256.605 44.8866 255.611 42.7678C254.616 40.6489 254.119 38.2282 254.119 35.5057C254.119 32.7358 254.628 30.2914 255.646 28.1726C256.676 26.0419 258.108 24.3788 259.943 23.1832C261.79 21.9759 263.944 21.3722 266.406 21.3722C268.324 21.3722 270.052 21.7273 271.591 22.4375C273.13 23.1477 274.39 24.142 275.373 25.4205C276.355 26.6989 276.965 28.1903 277.202 29.8949H273.011C272.692 28.652 271.982 27.5511 270.881 26.5923C269.792 25.6217 268.324 25.1364 266.477 25.1364C264.844 25.1364 263.411 25.5625 262.18 26.4148C260.961 27.2552 260.008 28.4448 259.322 29.9837C258.647 31.5107 258.31 33.304 258.31 35.3636C258.31 37.4706 258.641 39.3054 259.304 40.8679C259.979 42.4304 260.926 43.6437 262.145 44.5078C263.376 45.3719 264.82 45.804 266.477 45.804C267.566 45.804 268.555 45.6146 269.442 45.2358C270.33 44.857 271.082 44.3125 271.697 43.6023C272.313 42.892 272.751 42.0398 273.011 41.0455H277.202C276.965 42.6553 276.379 44.1054 275.444 45.3956C274.521 46.674 273.295 47.692 271.768 48.4496C270.253 49.1953 268.49 49.5682 266.477 49.5682Z"/>
</mask>
<path d="M2.75213 12.6364H13.6364L22.8693 35.1506H23.2955L32.5284 12.6364H43.4126V49H34.8544V26.6634H34.5526L25.8168 48.7692H20.348L11.6122 26.5391H11.3104V49H2.75213V12.6364ZM61.6255 49.5149C58.7609 49.5149 56.2988 48.929 54.2392 47.7571C52.1913 46.5734 50.6111 44.928 49.4984 42.821C48.3975 40.7022 47.8471 38.246 47.8471 35.4524C47.8471 32.647 48.3975 30.1908 49.4984 28.0838C50.6111 25.965 52.1913 24.3196 54.2392 23.1477C56.2988 21.964 58.7609 21.3722 61.6255 21.3722C64.4901 21.3722 66.9463 21.964 68.9941 23.1477C71.0538 24.3196 72.6341 25.965 73.7349 28.0838C74.8476 30.1908 75.4039 32.647 75.4039 35.4524C75.4039 38.246 74.8476 40.7022 73.7349 42.821C72.6341 44.928 71.0538 46.5734 68.9941 47.7571C66.9463 48.929 64.4901 49.5149 61.6255 49.5149ZM61.6788 42.9631C62.7205 42.9631 63.6023 42.6435 64.3244 42.0043C65.0465 41.3651 65.5969 40.4773 65.9757 39.3409C66.3663 38.2045 66.5616 36.8906 66.5616 35.3991C66.5616 33.884 66.3663 32.5582 65.9757 31.4219C65.5969 30.2855 65.0465 29.3977 64.3244 28.7585C63.6023 28.1193 62.7205 27.7997 61.6788 27.7997C60.6016 27.7997 59.6902 28.1193 58.9444 28.7585C58.2105 29.3977 57.6483 30.2855 57.2576 31.4219C56.8788 32.5582 56.6895 33.884 56.6895 35.3991C56.6895 36.8906 56.8788 38.2045 57.2576 39.3409C57.6483 40.4773 58.2105 41.3651 58.9444 42.0043C59.6902 42.6435 60.6016 42.9631 61.6788 42.9631ZM92.5826 49.5149C89.718 49.5149 87.2559 48.929 85.1962 47.7571C83.1484 46.5734 81.5681 44.928 80.4554 42.821C79.3546 40.7022 78.8042 38.246 78.8042 35.4524C78.8042 32.647 79.3546 30.1908 80.4554 28.0838C81.5681 25.965 83.1484 24.3196 85.1962 23.1477C87.2559 21.964 89.718 21.3722 92.5826 21.3722C95.4471 21.3722 97.9033 21.964 99.9512 23.1477C102.011 24.3196 103.591 25.965 104.692 28.0838C105.805 30.1908 106.361 32.647 106.361 35.4524C106.361 38.246 105.805 40.7022 104.692 42.821C103.591 44.928 102.011 46.5734 99.9512 47.7571C97.9033 48.929 95.4471 49.5149 92.5826 49.5149ZM92.6358 42.9631C93.6775 42.9631 94.5594 42.6435 95.2814 42.0043C96.0035 41.3651 96.5539 40.4773 96.9327 39.3409C97.3233 38.2045 97.5186 36.8906 97.5186 35.3991C97.5186 33.884 97.3233 32.5582 96.9327 31.4219C96.5539 30.2855 96.0035 29.3977 95.2814 28.7585C94.5594 28.1193 93.6775 27.7997 92.6358 27.7997C91.5587 27.7997 90.6472 28.1193 89.9015 28.7585C89.1676 29.3977 88.6053 30.2855 88.2147 31.4219C87.8359 32.5582 87.6465 33.884 87.6465 35.3991C87.6465 36.8906 87.8359 38.2045 88.2147 39.3409C88.6053 40.4773 89.1676 41.3651 89.9015 42.0043C90.6472 42.6435 91.5587 42.9631 92.6358 42.9631ZM120.77 49.3906C118.757 49.3906 116.929 48.8698 115.283 47.8281C113.638 46.7865 112.324 45.224 111.341 43.1406C110.359 41.0573 109.868 38.4709 109.868 35.3814C109.868 32.1735 110.377 29.5339 111.395 27.4624C112.413 25.3909 113.744 23.858 115.39 22.8636C117.047 21.8693 118.828 21.3722 120.734 21.3722C122.166 21.3722 123.392 21.6207 124.41 22.1179C125.428 22.6032 126.268 23.2306 126.931 24C127.594 24.7694 128.097 25.5684 128.44 26.397H128.618V12.6364H137.3V49H128.706V44.5788H128.44C128.073 45.4193 127.552 46.2064 126.878 46.9403C126.203 47.6742 125.357 48.2661 124.339 48.7159C123.332 49.1657 122.143 49.3906 120.77 49.3906ZM123.788 42.6257C124.842 42.6257 125.741 42.3298 126.487 41.7379C127.233 41.1342 127.807 40.2879 128.209 39.1989C128.612 38.1098 128.813 36.8314 128.813 35.3636C128.813 33.8722 128.612 32.5878 128.209 31.5107C127.819 30.4335 127.245 29.6049 126.487 29.0249C125.741 28.4448 124.842 28.1548 123.788 28.1548C122.711 28.1548 121.8 28.4508 121.054 29.0426C120.308 29.6345 119.74 30.469 119.349 31.5462C118.97 32.6233 118.781 33.8958 118.781 35.3636C118.781 36.8314 118.976 38.1098 119.367 39.1989C119.758 40.2879 120.32 41.1342 121.054 41.7379C121.8 42.3298 122.711 42.6257 123.788 42.6257ZM144.442 12.6364H149.698L162.056 42.821H162.482L174.84 12.6364H180.096V49H175.977V21.3722H175.621L164.258 49H160.281L148.917 21.3722H148.562V49H144.442V12.6364ZM205.544 37.8494V21.7273H209.735V49H205.544V44.3835H205.26C204.621 45.7685 203.627 46.9463 202.277 47.9169C200.928 48.8757 199.223 49.3551 197.164 49.3551C195.459 49.3551 193.944 48.9822 192.618 48.2365C191.292 47.4789 190.251 46.3426 189.493 44.8274C188.735 43.3004 188.357 41.3769 188.357 39.0568V21.7273H192.547V38.7727C192.547 40.7614 193.103 42.3475 194.216 43.5312C195.341 44.715 196.773 45.3068 198.513 45.3068C199.555 45.3068 200.614 45.0405 201.691 44.5078C202.78 43.9751 203.692 43.1584 204.426 42.0575C205.171 40.9567 205.544 39.554 205.544 37.8494ZM236.728 27.8352L232.963 28.9006C232.727 28.2732 232.377 27.6636 231.916 27.0717C231.466 26.468 230.85 25.9709 230.069 25.5803C229.288 25.1896 228.288 24.9943 227.069 24.9943C225.4 24.9943 224.009 25.379 222.896 26.1484C221.795 26.906 221.245 27.8707 221.245 29.0426C221.245 30.0843 221.623 30.907 222.381 31.5107C223.139 32.1143 224.322 32.6174 225.932 33.0199L229.98 34.0142C232.419 34.6061 234.236 35.5116 235.431 36.7308C236.627 37.9382 237.225 39.4948 237.225 41.4006C237.225 42.9631 236.775 44.3598 235.875 45.5909C234.988 46.822 233.745 47.7926 232.147 48.5028C230.549 49.2131 228.69 49.5682 226.571 49.5682C223.79 49.5682 221.487 48.9645 219.664 47.7571C217.842 46.5497 216.687 44.786 216.202 42.4659L220.179 41.4716C220.558 42.9394 221.274 44.0402 222.328 44.7741C223.393 45.508 224.784 45.875 226.5 45.875C228.453 45.875 230.004 45.4607 231.152 44.6321C232.312 43.7917 232.892 42.7855 232.892 41.6136C232.892 40.6667 232.561 39.8736 231.898 39.2344C231.235 38.5833 230.217 38.098 228.844 37.7784L224.299 36.7131C221.801 36.1212 219.966 35.2038 218.794 33.9609C217.634 32.7062 217.054 31.1378 217.054 29.2557C217.054 27.7169 217.486 26.3556 218.35 25.1719C219.226 23.9882 220.416 23.0589 221.919 22.3842C223.435 21.7095 225.151 21.3722 227.069 21.3722C229.767 21.3722 231.886 21.964 233.425 23.1477C234.976 24.3314 236.077 25.8939 236.728 27.8352ZM243.532 49V21.7273H247.723V49H243.532ZM245.663 17.1818C244.846 17.1818 244.142 16.9036 243.55 16.3473C242.97 15.791 242.68 15.1222 242.68 14.3409C242.68 13.5597 242.97 12.8909 243.55 12.3345C244.142 11.7782 244.846 11.5 245.663 11.5C246.48 11.5 247.178 11.7782 247.758 12.3345C248.35 12.8909 248.646 13.5597 248.646 14.3409C248.646 15.1222 248.35 15.791 247.758 16.3473C247.178 16.9036 246.48 17.1818 245.663 17.1818ZM266.477 49.5682C263.92 49.5682 261.719 48.9645 259.872 47.7571C258.026 46.5497 256.605 44.8866 255.611 42.7678C254.616 40.6489 254.119 38.2282 254.119 35.5057C254.119 32.7358 254.628 30.2914 255.646 28.1726C256.676 26.0419 258.108 24.3788 259.943 23.1832C261.79 21.9759 263.944 21.3722 266.406 21.3722C268.324 21.3722 270.052 21.7273 271.591 22.4375C273.13 23.1477 274.39 24.142 275.373 25.4205C276.355 26.6989 276.965 28.1903 277.202 29.8949H273.011C272.692 28.652 271.982 27.5511 270.881 26.5923C269.792 25.6217 268.324 25.1364 266.477 25.1364C264.844 25.1364 263.411 25.5625 262.18 26.4148C260.961 27.2552 260.008 28.4448 259.322 29.9837C258.647 31.5107 258.31 33.304 258.31 35.3636C258.31 37.4706 258.641 39.3054 259.304 40.8679C259.979 42.4304 260.926 43.6437 262.145 44.5078C263.376 45.3719 264.82 45.804 266.477 45.804C267.566 45.804 268.555 45.6146 269.442 45.2358C270.33 44.857 271.082 44.3125 271.697 43.6023C272.313 42.892 272.751 42.0398 273.011 41.0455H277.202C276.965 42.6553 276.379 44.1054 275.444 45.3956C274.521 46.674 273.295 47.692 271.768 48.4496C270.253 49.1953 268.49 49.5682 266.477 49.5682Z" fill="black"/>
<path d="M2.75213 12.6364V11.6364H1.75213V12.6364H2.75213ZM13.6364 12.6364L14.5616 12.2569L14.3071 11.6364H13.6364V12.6364ZM22.8693 35.1506L21.9441 35.53L22.1986 36.1506H22.8693V35.1506ZM23.2955 35.1506V36.1506H23.9662L24.2207 35.53L23.2955 35.1506ZM32.5284 12.6364V11.6364H31.8577L31.6032 12.2569L32.5284 12.6364ZM43.4126 12.6364H44.4126V11.6364H43.4126V12.6364ZM43.4126 49V50H44.4126V49H43.4126ZM34.8544 49H33.8544V50H34.8544V49ZM34.8544 26.6634H35.8544V25.6634H34.8544V26.6634ZM34.5526 26.6634V25.6634H33.8725L33.6225 26.2958L34.5526 26.6634ZM25.8168 48.7692V49.7692H26.4968L26.7468 49.1367L25.8168 48.7692ZM20.348 48.7692L19.4173 49.1349L19.6665 49.7692H20.348V48.7692ZM11.6122 26.5391L12.5429 26.1733L12.2937 25.5391H11.6122V26.5391ZM11.3104 26.5391V25.5391H10.3104V26.5391H11.3104ZM11.3104 49V50H12.3104V49H11.3104ZM2.75213 49H1.75213V50H2.75213V49ZM2.75213 13.6364H13.6364V11.6364H2.75213V13.6364ZM12.7111 13.0158L21.9441 35.53L23.7945 34.7711L14.5616 12.2569L12.7111 13.0158ZM22.8693 36.1506H23.2955V34.1506H22.8693V36.1506ZM24.2207 35.53L33.4536 13.0158L31.6032 12.2569L22.3702 34.7711L24.2207 35.53ZM32.5284 13.6364H43.4126V11.6364H32.5284V13.6364ZM42.4126 12.6364V49H44.4126V12.6364H42.4126ZM43.4126 48H34.8544V50H43.4126V48ZM35.8544 49V26.6634H33.8544V49H35.8544ZM34.8544 25.6634H34.5526V27.6634H34.8544V25.6634ZM33.6225 26.2958L24.8867 48.4017L26.7468 49.1367L35.4826 27.0309L33.6225 26.2958ZM25.8168 47.7692H20.348V49.7692H25.8168V47.7692ZM21.2787 48.4034L12.5429 26.1733L10.6815 26.9048L19.4173 49.1349L21.2787 48.4034ZM11.6122 25.5391H11.3104V27.5391H11.6122V25.5391ZM10.3104 26.5391V49H12.3104V26.5391H10.3104ZM11.3104 48H2.75213V50H11.3104V48ZM3.75213 49V12.6364H1.75213V49H3.75213ZM54.2392 47.7571L53.7387 48.6229L53.7446 48.6263L54.2392 47.7571ZM49.4984 42.821L48.611 43.2821L48.6141 43.288L49.4984 42.821ZM49.4984 28.0838L48.6131 27.6189L48.6121 27.6207L49.4984 28.0838ZM54.2392 23.1477L54.7358 24.0157L54.7375 24.0147L54.2392 23.1477ZM68.9941 23.1477L68.4937 24.0135L68.4996 24.0169L68.9941 23.1477ZM73.7349 28.0838L72.8475 28.5449L72.8506 28.5508L73.7349 28.0838ZM73.7349 42.821L72.8496 42.3561L72.8486 42.3579L73.7349 42.821ZM68.9941 47.7571L69.4908 48.625L69.4924 48.6241L68.9941 47.7571ZM64.3244 42.0043L63.6616 41.2555L63.6616 41.2555L64.3244 42.0043ZM65.9757 39.3409L65.0299 39.0158L65.027 39.0247L65.9757 39.3409ZM65.9757 31.4219L65.027 31.7381L65.03 31.747L65.9757 31.4219ZM64.3244 28.7585L64.9872 28.0098L64.9872 28.0098L64.3244 28.7585ZM58.9444 28.7585L58.2936 27.9992L58.2876 28.0044L58.9444 28.7585ZM57.2576 31.4219L56.3119 31.0968L56.309 31.1056L57.2576 31.4219ZM57.2576 39.3409L56.3089 39.6572L56.3119 39.666L57.2576 39.3409ZM58.9444 42.0043L58.2876 42.7584L58.2936 42.7635L58.9444 42.0043ZM61.6255 48.5149C58.8982 48.5149 56.6141 47.9578 54.7337 46.8879L53.7446 48.6263C55.9836 49.9001 58.6237 50.5149 61.6255 50.5149V48.5149ZM54.7396 46.8913C52.856 45.8025 51.4082 44.296 50.3827 42.354L48.6141 43.288C49.814 45.5601 51.5267 47.3443 53.7387 48.6229L54.7396 46.8913ZM50.3858 42.36C49.3706 40.4059 48.8471 38.1128 48.8471 35.4524H46.8471C46.8471 38.3792 47.4245 40.9984 48.611 43.2821L50.3858 42.36ZM48.8471 35.4524C48.8471 32.7793 49.3709 30.4873 50.3847 28.5469L48.6121 27.6207C47.4242 29.8943 46.8471 32.5147 46.8471 35.4524H48.8471ZM50.3837 28.5487C51.4092 26.5959 52.8558 25.0915 54.7358 24.0157L53.7425 22.2798C51.5269 23.5477 49.8129 25.334 48.6131 27.6189L50.3837 28.5487ZM54.7375 24.0147C56.6171 22.9345 58.8999 22.3722 61.6255 22.3722V20.3722C58.622 20.3722 55.9806 20.9935 53.7409 22.2807L54.7375 24.0147ZM61.6255 22.3722C64.3514 22.3722 66.6271 22.9346 68.4937 24.0135L69.4946 22.282C67.2655 20.9935 64.6288 20.3722 61.6255 20.3722V22.3722ZM68.4996 24.0169C70.3904 25.0927 71.8348 26.5957 72.8475 28.5448L74.6223 27.6228C73.4333 25.3342 71.7172 23.5465 69.4887 22.2786L68.4996 24.0169ZM72.8506 28.5508C73.8749 30.4903 74.4039 32.7809 74.4039 35.4524H76.4039C76.4039 32.5131 75.8203 29.8913 74.6192 27.6168L72.8506 28.5508ZM74.4039 35.4524C74.4039 38.1111 73.8753 40.4029 72.8496 42.3561L74.6203 43.286C75.8199 41.0015 76.4039 38.3808 76.4039 35.4524H74.4039ZM72.8486 42.3579C71.8359 44.2962 70.3902 45.8014 68.4959 46.8901L69.4924 48.6241C71.7174 47.3454 73.4322 45.5598 74.6212 43.2841L72.8486 42.3579ZM68.4975 46.8892C66.6302 47.9577 64.3531 48.5149 61.6255 48.5149V50.5149C64.6272 50.5149 67.2625 49.9002 69.4908 48.625L68.4975 46.8892ZM61.6788 43.9631C62.9434 43.9631 64.067 43.5676 64.9872 42.753L63.6616 41.2555C63.1376 41.7193 62.4975 41.9631 61.6788 41.9631V43.9631ZM64.9872 42.753C65.8693 41.9722 66.5033 40.9203 66.9244 39.6571L65.027 39.0247C64.6905 40.0342 64.2236 40.7579 63.6616 41.2555L64.9872 42.753ZM66.9214 39.666C67.3554 38.4033 67.5616 36.9756 67.5616 35.3991H65.5616C65.5616 36.8056 65.3772 38.0058 65.03 39.0158L66.9214 39.666ZM67.5616 35.3991C67.5616 33.8009 67.3559 32.361 66.9214 31.0968L65.03 31.747C65.3767 32.7555 65.5616 33.9671 65.5616 35.3991H67.5616ZM66.9244 31.1056C66.5033 29.8425 65.8693 28.7906 64.9872 28.0098L63.6616 29.5073C64.2236 30.0049 64.6905 30.7285 65.027 31.7381L66.9244 31.1056ZM64.9872 28.0098C64.067 27.1951 62.9434 26.7997 61.6788 26.7997V28.7997C62.4975 28.7997 63.1376 29.0435 63.6616 29.5073L64.9872 28.0098ZM61.6788 26.7997C60.3877 26.7997 59.2386 27.1893 58.2936 27.9993L59.5952 29.5178C60.1417 29.0493 60.8155 28.7997 61.6788 28.7997V26.7997ZM58.2876 28.0044C57.3938 28.783 56.7463 29.8332 56.3119 31.0968L58.2033 31.747C58.5502 30.7378 59.0273 30.0125 59.6012 29.5126L58.2876 28.0044ZM56.309 31.1056C55.8885 32.3669 55.6895 33.8036 55.6895 35.3991H57.6895C57.6895 33.9643 57.8692 32.7496 58.2063 31.7381L56.309 31.1056ZM55.6895 35.3991C55.6895 36.9729 55.889 38.3973 56.309 39.6571L58.2063 39.0247C57.8687 38.0117 57.6895 36.8084 57.6895 35.3991H55.6895ZM56.3119 39.666C56.7463 40.9296 57.3938 41.9798 58.2876 42.7583L59.6012 41.2502C59.0273 40.7503 58.5502 40.0249 58.2033 39.0158L56.3119 39.666ZM58.2936 42.7635C59.2386 43.5735 60.3877 43.9631 61.6788 43.9631V41.9631C60.8155 41.9631 60.1417 41.7134 59.5952 41.245L58.2936 42.7635ZM85.1962 47.7571L84.6957 48.6229L84.7017 48.6263L85.1962 47.7571ZM80.4554 42.821L79.568 43.2821L79.5712 43.288L80.4554 42.821ZM80.4554 28.0838L79.5701 27.6189L79.5691 27.6207L80.4554 28.0838ZM85.1962 23.1477L85.6929 24.0157L85.6945 24.0147L85.1962 23.1477ZM99.9512 23.1477L99.4507 24.0135L99.4566 24.0169L99.9512 23.1477ZM104.692 28.0838L103.805 28.5449L103.808 28.5508L104.692 28.0838ZM104.692 42.821L103.807 42.3561L103.806 42.3579L104.692 42.821ZM99.9512 47.7571L100.448 48.625L100.449 48.6241L99.9512 47.7571ZM95.2814 42.0043L94.6186 41.2555L94.6186 41.2555L95.2814 42.0043ZM96.9327 39.3409L95.987 39.0158L95.984 39.0247L96.9327 39.3409ZM96.9327 31.4219L95.984 31.7381L95.987 31.747L96.9327 31.4219ZM95.2814 28.7585L95.9443 28.0098L95.9443 28.0098L95.2814 28.7585ZM89.9015 28.7585L89.2506 27.9992L89.2447 28.0044L89.9015 28.7585ZM88.2147 31.4219L87.2689 31.0968L87.266 31.1056L88.2147 31.4219ZM88.2147 39.3409L87.2659 39.6572L87.269 39.666L88.2147 39.3409ZM89.9015 42.0043L89.2447 42.7584L89.2507 42.7635L89.9015 42.0043ZM92.5826 48.5149C89.8553 48.5149 87.5711 47.9578 85.6907 46.8879L84.7017 48.6263C86.9406 49.9001 89.5807 50.5149 92.5826 50.5149V48.5149ZM85.6966 46.8913C83.813 45.8025 82.3652 44.296 81.3397 42.354L79.5712 43.288C80.771 45.5601 82.4838 47.3443 84.6958 48.6229L85.6966 46.8913ZM81.3428 42.36C80.3276 40.4059 79.8042 38.1128 79.8042 35.4524H77.8042C77.8042 38.3792 78.3816 40.9984 79.5681 43.2821L81.3428 42.36ZM79.8042 35.4524C79.8042 32.7793 80.3279 30.4873 81.3418 28.5469L79.5691 27.6207C78.3812 29.8943 77.8042 32.5147 77.8042 35.4524H79.8042ZM81.3408 28.5487C82.3663 26.5959 83.8128 25.0915 85.6929 24.0157L84.6995 22.2798C82.4839 23.5477 80.77 25.334 79.5701 27.6189L81.3408 28.5487ZM85.6945 24.0147C87.5741 22.9345 89.8569 22.3722 92.5826 22.3722V20.3722C89.5791 20.3722 86.9376 20.9935 84.6979 22.2807L85.6945 24.0147ZM92.5826 22.3722C95.3085 22.3722 97.5842 22.9346 99.4507 24.0135L100.452 22.282C98.2225 20.9935 95.5858 20.3722 92.5826 20.3722V22.3722ZM99.4566 24.0169C101.347 25.0927 102.792 26.5957 103.805 28.5448L105.579 27.6228C104.39 25.3342 102.674 23.5465 100.446 22.2786L99.4566 24.0169ZM103.808 28.5508C104.832 30.4903 105.361 32.7809 105.361 35.4524H107.361C107.361 32.5131 106.777 29.8913 105.576 27.6168L103.808 28.5508ZM105.361 35.4524C105.361 38.1111 104.832 40.4029 103.807 42.3561L105.577 43.286C106.777 41.0015 107.361 38.3808 107.361 35.4524H105.361ZM103.806 42.3579C102.793 44.2962 101.347 45.8014 99.4529 46.8901L100.449 48.6241C102.674 47.3454 104.389 45.5598 105.578 43.2841L103.806 42.3579ZM99.4545 46.8892C97.5872 47.9577 95.3101 48.5149 92.5826 48.5149V50.5149C95.5842 50.5149 98.2195 49.9002 100.448 48.625L99.4545 46.8892ZM92.6358 43.9631C93.9005 43.9631 95.024 43.5676 95.9443 42.753L94.6186 41.2555C94.0947 41.7193 93.4545 41.9631 92.6358 41.9631V43.9631ZM95.9443 42.753C96.8263 41.9722 97.4603 40.9203 97.8814 39.6571L95.984 39.0247C95.6475 40.0342 95.1807 40.7579 94.6186 41.2555L95.9443 42.753ZM97.8784 39.666C98.3125 38.4033 98.5186 36.9756 98.5186 35.3991H96.5186C96.5186 36.8056 96.3342 38.0058 95.987 39.0158L97.8784 39.666ZM98.5186 35.3991C98.5186 33.8009 98.313 32.361 97.8784 31.0968L95.987 31.747C96.3337 32.7555 96.5186 33.9671 96.5186 35.3991H98.5186ZM97.8814 31.1056C97.4603 29.8425 96.8263 28.7906 95.9443 28.0098L94.6186 29.5073C95.1807 30.0049 95.6475 30.7285 95.984 31.7381L97.8814 31.1056ZM95.9443 28.0098C95.024 27.1951 93.9005 26.7997 92.6358 26.7997V28.7997C93.4545 28.7997 94.0947 29.0435 94.6186 29.5073L95.9443 28.0098ZM92.6358 26.7997C91.3448 26.7997 90.1956 27.1893 89.2507 27.9993L90.5522 29.5178C91.0988 29.0493 91.7726 28.7997 92.6358 28.7997V26.7997ZM89.2447 28.0044C88.3508 28.783 87.7033 29.8332 87.269 31.0968L89.1604 31.747C89.5072 30.7378 89.9843 30.0125 90.5582 29.5126L89.2447 28.0044ZM87.266 31.1056C86.8456 32.3669 86.6465 33.8036 86.6465 35.3991H88.6465C88.6465 33.9643 88.8262 32.7496 89.1633 31.7381L87.266 31.1056ZM86.6465 35.3991C86.6465 36.9729 86.8461 38.3973 87.266 39.6571L89.1633 39.0247C88.8257 38.0117 88.6465 36.8084 88.6465 35.3991H86.6465ZM87.269 39.666C87.7033 40.9296 88.3508 41.9798 89.2447 42.7583L90.5582 41.2502C89.9843 40.7503 89.5072 40.0249 89.1604 39.0158L87.269 39.666ZM89.2507 42.7635C90.1956 43.5735 91.3448 43.9631 92.6358 43.9631V41.9631C91.7726 41.9631 91.0988 41.7134 90.5522 41.245L89.2507 42.7635ZM115.283 47.8281L114.748 48.673L114.748 48.673L115.283 47.8281ZM111.341 43.1406L110.437 43.5672L110.437 43.5672L111.341 43.1406ZM111.395 27.4624L112.292 27.9034L112.292 27.9034L111.395 27.4624ZM115.39 22.8636L114.875 22.0061L114.873 22.0078L115.39 22.8636ZM124.41 22.1179L123.971 23.0165L123.979 23.0206L124.41 22.1179ZM126.931 24L127.689 23.3473L127.689 23.3473L126.931 24ZM128.44 26.397L127.516 26.7798L127.772 27.397H128.44V26.397ZM128.618 26.397V27.397H129.618V26.397H128.618ZM128.618 12.6364V11.6364H127.618V12.6364H128.618ZM137.3 12.6364H138.3V11.6364H137.3V12.6364ZM137.3 49V50H138.3V49H137.3ZM128.706 49H127.706V50H128.706V49ZM128.706 44.5788H129.706V43.5788H128.706V44.5788ZM128.44 44.5788V43.5788H127.786L127.524 44.1787L128.44 44.5788ZM126.878 46.9403L126.141 46.2635L126.141 46.2635L126.878 46.9403ZM124.339 48.7159L123.934 47.8012L123.93 47.803L124.339 48.7159ZM126.487 41.7379L127.109 42.5213L127.116 42.5152L126.487 41.7379ZM128.209 39.1989L129.147 39.5455L129.147 39.5455L128.209 39.1989ZM128.209 31.5107L127.269 31.8516L127.273 31.8606L128.209 31.5107ZM126.487 29.0249L125.873 29.8142L125.879 29.8189L126.487 29.0249ZM121.054 29.0426L121.675 29.8259L121.054 29.0426ZM119.349 31.5462L118.409 31.2052L118.406 31.2144L119.349 31.5462ZM121.054 41.7379L120.419 42.5102L120.425 42.5158L120.432 42.5212L121.054 41.7379ZM120.77 48.3906C118.94 48.3906 117.298 47.9201 115.818 46.9832L114.748 48.673C116.559 49.8195 118.575 50.3906 120.77 50.3906V48.3906ZM115.818 46.9832C114.361 46.0604 113.162 44.6576 112.246 42.7141L110.437 43.5672C111.485 45.7904 112.915 47.5125 114.748 48.673L115.818 46.9832ZM112.246 42.7141C111.344 40.8015 110.868 38.3712 110.868 35.3814H108.868C108.868 38.5705 109.374 41.313 110.437 43.5672L112.246 42.7141ZM110.868 35.3814C110.868 32.2704 111.363 29.7949 112.292 27.9034L110.497 27.0213C109.391 29.2728 108.868 32.0767 108.868 35.3814H110.868ZM112.292 27.9034C113.243 25.9689 114.456 24.5965 115.907 23.7195L114.873 22.0078C113.033 23.1194 111.583 24.8128 110.497 27.0213L112.292 27.9034ZM115.904 23.7211C117.408 22.8187 119.012 22.3722 120.734 22.3722V20.3722C118.645 20.3722 116.686 20.92 114.875 22.0061L115.904 23.7211ZM120.734 22.3722C122.053 22.3722 123.121 22.6013 123.971 23.0165L124.848 21.2193C123.663 20.6402 122.28 20.3722 120.734 20.3722V22.3722ZM123.979 23.0206C124.886 23.4528 125.611 23.9995 126.173 24.6527L127.689 23.3473C126.926 22.4617 125.969 21.7536 124.84 21.2152L123.979 23.0206ZM126.173 24.6527C126.776 25.3521 127.219 26.0615 127.516 26.7798L129.364 26.0143C128.975 25.0754 128.412 24.1868 127.689 23.3473L126.173 24.6527ZM128.44 27.397H128.618V25.397H128.44V27.397ZM129.618 26.397V12.6364H127.618V26.397H129.618ZM128.618 13.6364H137.3V11.6364H128.618V13.6364ZM136.3 12.6364V49H138.3V12.6364H136.3ZM137.3 48H128.706V50H137.3V48ZM129.706 49V44.5788H127.706V49H129.706ZM128.706 43.5788H128.44V45.5788H128.706V43.5788ZM127.524 44.1787C127.205 44.9091 126.748 45.6041 126.141 46.2635L127.614 47.6171C128.357 46.8087 128.942 45.9295 129.357 44.979L127.524 44.1787ZM126.141 46.2635C125.57 46.885 124.841 47.4005 123.934 47.8012L124.743 49.6306C125.872 49.1317 126.836 48.4635 127.614 47.6171L126.141 46.2635ZM123.93 47.803C123.08 48.1831 122.036 48.3906 120.77 48.3906V50.3906C122.25 50.3906 123.585 50.1483 124.747 49.6288L123.93 47.803ZM123.788 43.6257C125.042 43.6257 126.167 43.2685 127.109 42.5212L125.865 40.9546C125.315 41.3911 124.641 41.6257 123.788 41.6257V43.6257ZM127.116 42.5152C128.028 41.7767 128.696 40.7677 129.147 39.5455L127.271 38.8522C126.918 39.808 126.437 40.4918 125.858 40.9607L127.116 42.5152ZM129.147 39.5455C129.6 38.3206 129.813 36.9198 129.813 35.3636H127.813C127.813 36.743 127.624 37.8991 127.271 38.8522L129.147 39.5455ZM129.813 35.3636C129.813 33.7864 129.601 32.3775 129.146 31.1607L127.273 31.8606C127.623 32.7981 127.813 33.958 127.813 35.3636H129.813ZM129.149 31.1697C128.707 29.9494 128.032 28.9486 127.095 28.2309L125.879 29.8189C126.457 30.2612 126.931 30.9176 127.269 31.8516L129.149 31.1697ZM127.101 28.2355C126.159 27.5032 125.037 27.1548 123.788 27.1548V29.1548C124.646 29.1548 125.323 29.3864 125.873 29.8142L127.101 28.2355ZM123.788 27.1548C122.517 27.1548 121.378 27.5089 120.432 28.2593L121.675 29.8259C122.221 29.3927 122.905 29.1548 123.788 29.1548V27.1548ZM120.432 28.2593C119.514 28.9878 118.85 29.9896 118.409 31.2053L120.289 31.8871C120.63 30.9484 121.102 30.2811 121.675 29.8259L120.432 28.2593ZM118.406 31.2144C117.981 32.4237 117.781 33.8135 117.781 35.3636H119.781C119.781 33.9782 119.96 32.823 120.293 31.8779L118.406 31.2144ZM117.781 35.3636C117.781 36.917 117.987 38.3145 118.426 39.5365L120.308 38.8612C119.965 37.9052 119.781 36.7459 119.781 35.3636H117.781ZM118.426 39.5365C118.864 40.7584 119.518 41.7693 120.419 42.5102L121.689 40.9656C121.122 40.4992 120.651 39.8173 120.308 38.8612L118.426 39.5365ZM120.432 42.5212C121.378 43.2717 122.517 43.6257 123.788 43.6257V41.6257C122.905 41.6257 122.221 41.3879 121.675 40.9546L120.432 42.5212ZM144.442 12.6364V11.6364H143.442V12.6364H144.442ZM149.698 12.6364L150.624 12.2575L150.369 11.6364H149.698V12.6364ZM162.056 42.821L161.131 43.1999L161.385 43.821H162.056V42.821ZM162.482 42.821V43.821H163.153L163.408 43.1999L162.482 42.821ZM174.84 12.6364V11.6364H174.169L173.915 12.2575L174.84 12.6364ZM180.096 12.6364H181.096V11.6364H180.096V12.6364ZM180.096 49V50H181.096V49H180.096ZM175.977 49H174.977V50H175.977V49ZM175.977 21.3722H176.977V20.3722H175.977V21.3722ZM175.621 21.3722V20.3722H174.951L174.697 20.9918L175.621 21.3722ZM164.258 49V50H164.928L165.183 49.3804L164.258 49ZM160.281 49L159.356 49.3804L159.611 50H160.281V49ZM148.917 21.3722L149.842 20.9918L149.587 20.3722H148.917V21.3722ZM148.562 21.3722V20.3722H147.562V21.3722H148.562ZM148.562 49V50H149.562V49H148.562ZM144.442 49H143.442V50H144.442V49ZM144.442 13.6364H149.698V11.6364H144.442V13.6364ZM148.773 13.0152L161.131 43.1999L162.982 42.4421L150.624 12.2575L148.773 13.0152ZM162.056 43.821H162.482V41.821H162.056V43.821ZM163.408 43.1999L175.766 13.0152L173.915 12.2575L161.557 42.4421L163.408 43.1999ZM174.84 13.6364H180.096V11.6364H174.84V13.6364ZM179.096 12.6364V49H181.096V12.6364H179.096ZM180.096 48H175.977V50H180.096V48ZM176.977 49V21.3722H174.977V49H176.977ZM175.977 20.3722H175.621V22.3722H175.977V20.3722ZM174.697 20.9918L163.333 48.6196L165.183 49.3804L176.546 21.7526L174.697 20.9918ZM164.258 48H160.281V50H164.258V48ZM161.205 48.6196L149.842 20.9918L147.992 21.7526L159.356 49.3804L161.205 48.6196ZM148.917 20.3722H148.562V22.3722H148.917V20.3722ZM147.562 21.3722V49H149.562V21.3722H147.562ZM148.562 48H144.442V50H148.562V48ZM145.442 49V12.6364H143.442V49H145.442ZM205.544 21.7273V20.7273H204.544V21.7273H205.544ZM209.735 21.7273H210.735V20.7273H209.735V21.7273ZM209.735 49V50H210.735V49H209.735ZM205.544 49H204.544V50H205.544V49ZM205.544 44.3835H206.544V43.3835H205.544V44.3835ZM205.26 44.3835V43.3835H204.62L204.352 43.9645L205.26 44.3835ZM202.277 47.9169L202.856 48.7321L202.861 48.7287L202.277 47.9169ZM192.618 48.2365L192.122 49.1048L192.128 49.1081L192.618 48.2365ZM189.493 44.8274L188.597 45.2719L188.599 45.2746L189.493 44.8274ZM188.357 21.7273V20.7273H187.357V21.7273H188.357ZM192.547 21.7273H193.547V20.7273H192.547V21.7273ZM194.216 43.5312L193.487 44.2162L193.491 44.22L194.216 43.5312ZM201.691 44.5078L201.252 43.6095L201.248 43.6114L201.691 44.5078ZM204.426 42.0575L203.598 41.4967L203.594 41.5028L204.426 42.0575ZM206.544 37.8494V21.7273H204.544V37.8494H206.544ZM205.544 22.7273H209.735V20.7273H205.544V22.7273ZM208.735 21.7273V49H210.735V21.7273H208.735ZM209.735 48H205.544V50H209.735V48ZM206.544 49V44.3835H204.544V49H206.544ZM205.544 43.3835H205.26V45.3835H205.544V43.3835ZM204.352 43.9645C203.792 45.1789 202.916 46.2259 201.693 47.1051L202.861 48.7287C204.338 47.6666 205.45 46.3581 206.168 44.8026L204.352 43.9645ZM201.698 47.1017C200.555 47.9137 199.067 48.3551 197.164 48.3551V50.3551C199.38 50.3551 201.3 49.8377 202.856 48.7321L201.698 47.1017ZM197.164 48.3551C195.61 48.3551 194.267 48.0167 193.108 47.3649L192.128 49.1081C193.621 49.9478 195.308 50.3551 197.164 50.3551V48.3551ZM193.114 47.3683C191.978 46.7192 191.067 45.7388 190.388 44.3802L188.599 45.2746C189.434 46.9463 190.606 48.2387 192.122 49.1047L193.114 47.3683ZM190.389 44.383C189.72 43.0347 189.357 41.2755 189.357 39.0568H187.357C187.357 41.4783 187.751 43.5661 188.597 45.2718L190.389 44.383ZM189.357 39.0568V21.7273H187.357V39.0568H189.357ZM188.357 22.7273H192.547V20.7273H188.357V22.7273ZM191.547 21.7273V38.7727H193.547V21.7273H191.547ZM191.547 38.7727C191.547 40.9558 192.163 42.8074 193.487 44.2162L194.945 42.8463C194.044 41.8877 193.547 40.5669 193.547 38.7727H191.547ZM193.491 44.22C194.818 45.6166 196.519 46.3068 198.513 46.3068V44.3068C197.027 44.3068 195.863 43.8133 194.941 42.8425L193.491 44.22ZM198.513 46.3068C199.73 46.3068 200.941 45.9945 202.134 45.4042L201.248 43.6114C200.287 44.0864 199.379 44.3068 198.513 44.3068V46.3068ZM202.131 45.4061C203.393 44.7887 204.435 43.8465 205.258 42.6122L203.594 41.5028C202.949 42.4703 202.168 43.1616 201.252 43.6095L202.131 45.4061ZM205.254 42.6184C206.139 41.3109 206.544 39.6978 206.544 37.8494H204.544C204.544 39.4101 204.203 40.6024 203.598 41.4967L205.254 42.6184ZM236.728 27.8352L237 28.7974L238.009 28.5118L237.676 27.5173L236.728 27.8352ZM232.963 28.9006L232.028 29.2536L232.352 30.1129L233.236 29.8628L232.963 28.9006ZM231.916 27.0717L231.114 27.6692L231.121 27.6781L231.127 27.6868L231.916 27.0717ZM230.069 25.5803L230.516 24.6858L230.516 24.6858L230.069 25.5803ZM222.896 26.1484L223.463 26.9722L223.465 26.9709L222.896 26.1484ZM222.381 31.5107L221.758 32.2927L221.758 32.2927L222.381 31.5107ZM225.932 33.0199L225.69 33.99L225.694 33.991L225.932 33.0199ZM229.98 34.0142L229.742 34.9853L229.745 34.986L229.98 34.0142ZM235.431 36.7308L234.717 37.431L234.721 37.4344L235.431 36.7308ZM235.875 45.5909L235.068 45.0009L235.064 45.006L235.875 45.5909ZM219.664 47.7571L220.217 46.9234L220.217 46.9234L219.664 47.7571ZM216.202 42.4659L215.96 41.4958L215.026 41.7291L215.223 42.6707L216.202 42.4659ZM220.179 41.4716L221.148 41.2217L220.9 40.2607L219.937 40.5014L220.179 41.4716ZM222.328 44.7741L221.756 45.5947L221.76 45.5977L222.328 44.7741ZM231.152 44.6321L231.738 45.443L231.739 45.4419L231.152 44.6321ZM231.898 39.2344L231.197 39.9479L231.204 39.9542L231.898 39.2344ZM228.844 37.7784L228.616 38.752L228.617 38.7524L228.844 37.7784ZM224.299 36.7131L224.068 37.6861L224.07 37.6867L224.299 36.7131ZM218.794 33.9609L218.06 34.6398L218.067 34.647L218.794 33.9609ZM218.35 25.1719L217.547 24.577L217.543 24.5823L218.35 25.1719ZM221.919 22.3842L221.513 21.4707L221.51 21.4719L221.919 22.3842ZM233.425 23.1477L232.815 23.9404L232.818 23.9426L233.425 23.1477ZM236.455 26.873L232.691 27.9384L233.236 29.8628L237 28.7974L236.455 26.873ZM233.899 28.5475C233.623 27.8154 233.221 27.1186 232.704 26.4567L231.127 27.6868C231.534 28.2086 231.831 28.731 232.028 29.2536L233.899 28.5475ZM232.718 26.4743C232.161 25.7266 231.415 25.1352 230.516 24.6858L229.622 26.4747C230.286 26.8066 230.771 27.2095 231.114 27.6692L232.718 26.4743ZM230.516 24.6858C229.553 24.2039 228.385 23.9943 227.069 23.9943V25.9943C228.19 25.9943 229.023 26.1754 229.622 26.4747L230.516 24.6858ZM227.069 23.9943C225.244 23.9943 223.643 24.4164 222.327 25.3259L223.465 26.9709C224.375 26.3417 225.555 25.9943 227.069 25.9943V23.9943ZM222.329 25.3247C221.001 26.2384 220.245 27.4914 220.245 29.0426H222.245C222.245 28.2501 222.589 27.5736 223.463 26.9722L222.329 25.3247ZM220.245 29.0426C220.245 30.3624 220.742 31.4834 221.758 32.2927L223.004 30.7286C222.505 30.3305 222.245 29.8062 222.245 29.0426H220.245ZM221.758 32.2927C222.68 33.0277 224.026 33.5742 225.69 33.99L226.175 32.0497C224.618 31.6607 223.597 31.201 223.004 30.7286L221.758 32.2927ZM225.694 33.991L229.742 34.9853L230.219 33.0431L226.171 32.0487L225.694 33.991ZM229.745 34.986C232.082 35.5532 233.7 36.3938 234.717 37.431L236.145 36.0307C234.771 34.6294 232.756 33.6589 230.216 33.0424L229.745 34.986ZM234.721 37.4344C235.708 38.4311 236.225 39.7233 236.225 41.4006H238.225C238.225 39.2662 237.546 37.4453 236.142 36.0272L234.721 37.4344ZM236.225 41.4006C236.225 42.7566 235.839 43.9456 235.068 45.0009L236.683 46.1809C237.711 44.7741 238.225 43.1696 238.225 41.4006H236.225ZM235.064 45.006C234.295 46.0729 233.202 46.9396 231.741 47.589L232.553 49.4167C234.288 48.6456 235.68 47.5711 236.686 46.1758L235.064 45.006ZM231.741 47.589C230.294 48.2317 228.579 48.5682 226.571 48.5682V50.5682C228.801 50.5682 230.803 50.1944 232.553 49.4167L231.741 47.589ZM226.571 48.5682C223.933 48.5682 221.836 47.9963 220.217 46.9234L219.112 48.5908C221.138 49.9327 223.646 50.5682 226.571 50.5682V48.5682ZM220.217 46.9234C218.633 45.8743 217.617 44.3475 217.181 42.2612L215.223 42.6707C215.757 45.2245 217.05 47.2252 219.112 48.5908L220.217 46.9234ZM216.445 43.4361L220.422 42.4417L219.937 40.5014L215.96 41.4958L216.445 43.4361ZM219.211 41.7215C219.638 43.3768 220.472 44.7002 221.756 45.5947L222.899 43.9536C222.076 43.3803 221.478 42.502 221.148 41.2217L219.211 41.7215ZM221.76 45.5977C223.039 46.4787 224.647 46.875 226.5 46.875V44.875C224.921 44.875 223.747 44.5374 222.895 43.9506L221.76 45.5977ZM226.5 46.875C228.586 46.875 230.365 46.4334 231.738 45.443L230.567 43.8212C229.643 44.488 228.321 44.875 226.5 44.875V46.875ZM231.739 45.4419C233.094 44.4604 233.892 43.1786 233.892 41.6136H231.892C231.892 42.3924 231.531 43.1229 230.566 43.8223L231.739 45.4419ZM233.892 41.6136C233.892 40.4038 233.457 39.3481 232.592 38.5145L231.204 39.9542C231.665 40.399 231.892 40.9295 231.892 41.6136H233.892ZM232.599 38.5209C231.754 37.691 230.537 37.1457 229.071 36.8044L228.617 38.7524C229.897 39.0503 230.717 39.4757 231.197 39.9478L232.599 38.5209ZM229.072 36.8048L224.527 35.7395L224.07 37.6867L228.616 38.752L229.072 36.8048ZM224.529 35.74C222.132 35.172 220.508 34.3209 219.522 33.2749L218.067 34.647C219.424 36.0868 221.47 37.0704 224.068 37.6861L224.529 35.74ZM219.529 33.2821C218.557 32.2315 218.054 30.9138 218.054 29.2557H216.054C216.054 31.3617 216.711 33.1809 218.06 34.6398L219.529 33.2821ZM218.054 29.2557C218.054 27.9175 218.426 26.7651 219.158 25.7615L217.543 24.5823C216.547 25.9461 216.054 27.5162 216.054 29.2557H218.054ZM219.154 25.7667C219.917 24.7367 220.963 23.9095 222.329 23.2966L221.51 21.4719C219.869 22.2083 218.536 23.2396 217.547 24.577L219.154 25.7667ZM222.326 23.2977C223.695 22.6883 225.269 22.3722 227.069 22.3722V20.3722C225.033 20.3722 223.174 20.7308 221.513 21.4707L222.326 23.2977ZM227.069 22.3722C229.631 22.3722 231.508 22.9348 232.815 23.9403L234.035 22.3551C232.264 20.9932 229.904 20.3722 227.069 20.3722V22.3722ZM232.818 23.9426C234.202 24.9988 235.189 26.3915 235.78 28.1532L237.676 27.5173C236.964 25.3964 235.75 23.6641 234.032 22.3529L232.818 23.9426ZM243.532 49H242.532V50H243.532V49ZM243.532 21.7273V20.7273H242.532V21.7273H243.532ZM247.723 21.7273H248.723V20.7273H247.723V21.7273ZM247.723 49V50H248.723V49H247.723ZM243.55 16.3473L242.858 17.069L242.865 17.0759L243.55 16.3473ZM243.55 12.3345L242.865 11.6059L242.858 11.6128L243.55 12.3345ZM247.758 12.3345L247.066 13.0562L247.073 13.0631L247.758 12.3345ZM247.758 16.3473L247.073 15.6186L247.066 15.6256L247.758 16.3473ZM244.532 49V21.7273H242.532V49H244.532ZM243.532 22.7273H247.723V20.7273H243.532V22.7273ZM246.723 21.7273V49H248.723V21.7273H246.723ZM247.723 48H243.532V50H247.723V48ZM245.663 16.1818C245.099 16.1818 244.64 15.9996 244.235 15.6187L242.865 17.0759C243.644 17.8077 244.593 18.1818 245.663 18.1818V16.1818ZM244.242 15.6256C243.853 15.2518 243.68 14.841 243.68 14.3409H241.68C241.68 15.4033 242.088 16.3302 242.858 17.069L244.242 15.6256ZM243.68 14.3409C243.68 13.8408 243.853 13.4301 244.242 13.0562L242.858 11.6128C242.088 12.3517 241.68 13.2785 241.68 14.3409H243.68ZM244.235 13.0631C244.64 12.6822 245.099 12.5 245.663 12.5V10.5C244.593 10.5 243.644 10.8742 242.865 11.6059L244.235 13.0631ZM245.663 12.5C246.227 12.5 246.676 12.6817 247.066 13.0562L248.451 11.6128C247.681 10.8747 246.733 10.5 245.663 10.5V12.5ZM247.073 13.0631C247.473 13.439 247.646 13.8477 247.646 14.3409H249.646C249.646 13.2716 249.227 12.3428 248.443 11.6059L247.073 13.0631ZM247.646 14.3409C247.646 14.8341 247.473 15.2429 247.073 15.6187L248.443 17.0759C249.227 16.339 249.646 15.4102 249.646 14.3409H247.646ZM247.066 15.6256C246.676 16.0002 246.227 16.1818 245.663 16.1818V18.1818C246.733 18.1818 247.681 17.8071 248.451 17.069L247.066 15.6256ZM259.872 47.7571L259.325 48.5941L259.325 48.5941L259.872 47.7571ZM255.646 28.1726L254.746 27.7374L254.745 27.7395L255.646 28.1726ZM259.943 23.1832L260.489 24.0211L260.49 24.0202L259.943 23.1832ZM275.373 25.4205L276.166 24.8111L276.166 24.8111L275.373 25.4205ZM277.202 29.8949V30.8949H278.35L278.192 29.7573L277.202 29.8949ZM273.011 29.8949L272.043 30.1439L272.236 30.8949H273.011V29.8949ZM270.881 26.5923L270.215 27.3389L270.224 27.3464L270.881 26.5923ZM262.18 26.4148L262.748 27.2381L262.75 27.237L262.18 26.4148ZM259.322 29.9837L258.408 29.5762L258.407 29.5795L259.322 29.9837ZM259.304 40.8679L258.383 41.2585L258.386 41.2643L259.304 40.8679ZM262.145 44.5078L261.567 45.3237L261.57 45.3263L262.145 44.5078ZM269.442 45.2358L269.05 44.316L269.05 44.316L269.442 45.2358ZM271.697 43.6023L272.453 44.2572L272.453 44.2572L271.697 43.6023ZM273.011 41.0455V40.0455H272.24L272.044 40.7921L273.011 41.0455ZM277.202 41.0455L278.191 41.1909L278.36 40.0455H277.202V41.0455ZM275.444 45.3956L274.634 44.8087L274.633 44.8101L275.444 45.3956ZM271.768 48.4496L272.21 49.3468L272.213 49.3454L271.768 48.4496ZM266.477 48.5682C264.083 48.5682 262.079 48.0051 260.419 46.9201L259.325 48.5941C261.359 49.9239 263.758 50.5682 266.477 50.5682V48.5682ZM260.419 46.9201C258.738 45.8205 257.437 44.3045 256.516 42.3429L254.706 43.1926C255.774 45.4687 257.313 47.2789 259.325 48.5941L260.419 46.9201ZM256.516 42.3429C255.594 40.377 255.119 38.1052 255.119 35.5057H253.119C253.119 38.3512 253.639 40.9208 254.706 43.1926L256.516 42.3429ZM255.119 35.5057C255.119 32.8592 255.605 30.5673 256.548 28.6056L254.745 27.7395C253.651 30.0155 253.119 32.6124 253.119 35.5057H255.119ZM256.547 28.6078C257.504 26.6274 258.819 25.1092 260.489 24.0211L259.397 22.3454C257.398 23.6484 255.848 25.4565 254.746 27.7374L256.547 28.6078ZM260.49 24.0202C262.156 22.9313 264.115 22.3722 266.406 22.3722V20.3722C263.773 20.3722 261.424 21.0204 259.396 22.3463L260.49 24.0202ZM266.406 22.3722C268.198 22.3722 269.781 22.7034 271.172 23.3455L272.01 21.5295C270.323 20.7512 268.45 20.3722 266.406 20.3722V22.3722ZM271.172 23.3455C272.571 23.9914 273.701 24.8863 274.58 26.0298L276.166 24.8111C275.08 23.3978 273.688 22.304 272.01 21.5295L271.172 23.3455ZM274.58 26.0298C275.45 27.1615 275.997 28.4877 276.211 30.0325L278.192 29.7573C277.933 27.893 277.261 26.2363 276.166 24.8111L274.58 26.0298ZM277.202 28.8949H273.011V30.8949H277.202V28.8949ZM273.98 29.6458C273.603 28.1808 272.769 26.9111 271.537 25.8382L270.224 27.3464C271.194 28.1912 271.78 29.1232 272.043 30.1439L273.98 29.6458ZM271.546 25.8458C270.229 24.672 268.502 24.1364 266.477 24.1364V26.1364C268.146 26.1364 269.354 26.5714 270.215 27.3388L271.546 25.8458ZM266.477 24.1364C264.66 24.1364 263.025 24.614 261.611 25.5926L262.75 27.237C263.798 26.511 265.028 26.1364 266.477 26.1364V24.1364ZM261.613 25.5914C260.222 26.5499 259.159 27.8933 258.409 29.5762L260.235 30.3911C260.857 28.9964 261.7 27.9605 262.748 27.2381L261.613 25.5914ZM258.407 29.5795C257.665 31.2599 257.31 33.1965 257.31 35.3636H259.31C259.31 33.4115 259.629 31.7614 260.236 30.3878L258.407 29.5795ZM257.31 35.3636C257.31 37.5734 257.657 39.5465 258.383 41.2584L260.225 40.4773C259.625 39.0643 259.31 37.3678 259.31 35.3636H257.31ZM258.386 41.2643C259.123 42.9713 260.178 44.3395 261.567 45.3237L262.723 43.6919C261.673 42.9479 260.834 41.8895 260.222 40.4715L258.386 41.2643ZM261.57 45.3263C262.987 46.3205 264.636 46.804 266.477 46.804V44.804C265.004 44.804 263.765 44.4233 262.719 43.6893L261.57 45.3263ZM266.477 46.804C267.684 46.804 268.808 46.5937 269.835 46.1556L269.05 44.316C268.301 44.6355 267.449 44.804 266.477 44.804V46.804ZM269.835 46.1556C270.858 45.7189 271.735 45.0853 272.453 44.2572L270.942 42.9473C270.428 43.5397 269.802 43.9951 269.05 44.316L269.835 46.1556ZM272.453 44.2572C273.178 43.4206 273.683 42.4273 273.979 41.2988L272.044 40.7921C271.819 41.6522 271.448 42.3635 270.942 42.9473L272.453 44.2572ZM273.011 42.0455H277.202V40.0455H273.011V42.0455ZM276.212 40.9C275.999 42.3539 275.473 43.6518 274.634 44.8088L276.254 45.9824C277.285 44.5589 277.931 42.9567 278.191 41.1909L276.212 40.9ZM274.633 44.8101C273.813 45.9464 272.718 46.8624 271.324 47.5538L272.213 49.3454C273.873 48.5216 275.229 47.4016 276.255 45.9811L274.633 44.8101ZM271.327 47.5524C269.973 48.2187 268.366 48.5682 266.477 48.5682V50.5682C268.614 50.5682 270.534 50.1719 272.21 49.3468L271.327 47.5524Z" fill="black" mask="url(#path-1-outside-1_407_6)"/>
</g>
<defs>
<filter id="filter0_i_407_6" x="2.75214" y="11.5" width="274.45" height="42.0682" filterUnits="userSpaceOnUse" color-interpolation-filters="sRGB">
<feFlood flood-opacity="0" result="BackgroundImageFix"/>
<feBlend mode="normal" in="SourceGraphic" in2="BackgroundImageFix" result="shape"/>
<feColorMatrix in="SourceAlpha" type="matrix" values="0 0 0 0 0 0 0 0 0 0 0 0 0 0 0 0 0 0 127 0" result="hardAlpha"/>
<feOffset dy="4"/>
<feGaussianBlur stdDeviation="2"/>
<feComposite in2="hardAlpha" operator="arithmetic" k2="-1" k3="1"/>
<feColorMatrix type="matrix" values="0 0 0 0 0 0 0 0 0 0 0 0 0 0 0 0 0 0 0.25 0"/>
<feBlend mode="normal" in2="shape" result="effect1_innerShadow_407_6"/>
</filter>
</defs>
</svg>
